<svg xmlns="http://www.w3.org/2000/svg" viewBox="0 0 2960.23 896.54"><title>packiot-light</title><path d="M1493.47,352.4a20.89,20.89,0,0,0,7.34,16.63c15.33,13.34,49.75,10.61,57.9,9.75V326a150.52,150.52,0,0,0-16.1-.85c-13.66,0-31.81,1.87-41.8,10.6C1495.88,340,1493.47,345.51,1493.47,352.4Z" fill="none"/><circle cx="321.22" cy="323.65" r="62.19" fill="none"/><circle cx="74.42" cy="74.42" r="62.19" fill="none"/><circle cx="814.81" cy="74.42" r="62.19" fill="none"/><path d="M1604.59,758.58c-2.33,3.91-15.41,28.42-.25,51.13,14.28,1.59,49.79,3.92,61.05-2.44V758.58C1657.72,757.07,1624.24,751.12,1604.59,758.58Z" fill="none"/><circle cx="568.01" cy="323.65" r="62.19" fill="none"/><path d="M808.69,249.55v-101a74,74,0,0,1-41.54-17L623.93,274.71a74,74,0,0,1,18.19,42.83H740.7A74.45,74.45,0,0,1,808.69,249.55Z" fill="none"/><circle cx="814.81" cy="323.65" r="62.19" fill="none"/><path d="M1327.14,758.58c-2.28,3.91-15.37,28.42-.2,51.13,14.27,1.59,49.79,3.92,61-2.44V758.58C1380.27,757.07,1346.84,751.12,1327.14,758.58Z" fill="none"/><circle cx="568.01" cy="572.89" r="62.19" fill="none"/><path d="M1246.73,636.61l.08-.12c-.82-1.3-9.3-9.34-91.79-7v180c33.76.53,87.14-.16,92.56-4.2,5.18-6.32,2.25-106.43-.81-168Z" fill="none"/><path d="M2505.26,374.81c16.47.12,29.66-4.35,40-14,24.06-22.47,27.36-69.41,27.57-107.78.2-49.3-7.79-80.21-25.16-97.29-10.61-10.4-25-15.5-42.86-15h-.08c-17.78-.45-32.26,4.65-42.86,15-17.37,17.08-25.36,48-25.16,97.29.21,38.37,3.51,85.31,27.57,107.78C2474.57,370.46,2488.44,374.93,2505.26,374.81Z" fill="none"/><path d="M2477.18,740.88c20.11-.16,28.79-.2,32.67-.08V705.94c0-.17,0-1.59-1.8-3.43-2.57-2.61-10-7-30.83-7s-28.25,4.4-30.82,7c-1.8,1.84-1.8,3.26-1.8,3.34V740.8C2448.48,740.68,2457.16,740.72,2477.18,740.88Z" fill="none"/><circle cx="321.22" cy="822.13" r="62.19" fill="none"/><path d="M2041.52,758.58c-2.28,3.91-15.37,28.42-.21,51.13,14.28,1.59,49.79,3.92,61-2.44V758.58C2094.65,757.07,2061.21,751.12,2041.52,758.58Z" fill="none"/><path d="M1242.24,256.08c24-4.24,54.45-25.35,54.28-56.23.17-35-30.26-52-54.28-56.19-2.32-.41-22.34-2.08-27.4-1.51V257.59C1219.9,258.12,1239.92,256.49,1242.24,256.08Z" fill="none"/><path d="M2765.93,744.88c-12.85-3.06-26.14-3.35-39-3.63-10.39-.25-21.12-.45-31.39-2.16-3.27-.53-5.75-1.22-7.26-2.94-1.31-1.47-1.84-3.71-2.16-5.91-1.19-8-2.41-16.39-.86-24.39.61-3.14,2.16-6.27,4.93-7.87,3.59-2.07,10.77-2.61,14.64-3,15.82-1.55,23-.9,36.95,1.26,10.84,1.67,23.81,6.89,34.66,8.4a13.05,13.05,0,0,0,.08-4c-.08-.78-1.35-14-1.35-14l-.12-1.1-1-.53c-8.28-4.49-16.6-7.71-26-8.88a270.68,270.68,0,0,0-29-1.56c-2.4,0-4.89-.12-7.38-.21-10-.36-20.43-.73-29.89,1.68a25.78,25.78,0,0,0-14.55,9.86c-4.57,6.37-5.18,14.11-5.26,20.15-.09,8.77-.17,17.78,1.26,26.71.69,4.44,2.08,10.93,6,16.06,3.83,5,10,8.61,18.3,10.85,10.73,2.86,21.94,3,32.83,3.1,10.07.12,20.55.24,30.34,2.61a6.52,6.52,0,0,1,3.18,1.39,6,6,0,0,1,1.1,2.61,63,63,0,0,1,.12,31.27,9.77,9.77,0,0,1-2.24,4.65c-4.12,4-14.31,4.57-19.66,5.34a122.3,122.3,0,0,1-22.87,1.14,119.42,119.42,0,0,1-43.8-10.27l-2.89-1.31.12,16a7.5,7.5,0,0,0,.82,4,7.69,7.69,0,0,0,3.1,2.61c14.19,7.63,31.8,11.38,53.74,11.38,1.26,0,2.57,0,3.87,0,19.13-.37,33.6-3.3,45.59-9.26a18.64,18.64,0,0,0,6.77-5c2.24-2.81,3-6.4,3.55-9.54,2.57-15.13,4-32.75,0-47.92C2779.18,754.34,2774.86,747,2765.93,744.88Z" fill="#fff"/><path d="M2690.29,67.28h-1.92c-1.91.45-2.9,1.14-.12,78.21l.08,2h88.93V443.13h86.33V145.45h70.1l26.54-78.17Z" fill="#fff"/><path d="M2631.77,676.05c-10.6-1-21.57-2-32.62-1.19-17.82,1.27-29.81,5.63-35.64,13-4.2,5.26-3.47,10.2-3.47,10.2V832.84h26V702.47c4.85-6.73,33.36-6.93,50.52-5.42l1.59.12,6.73-20.06-2.65-.21C2638.74,676.66,2635.28,676.33,2631.77,676.05Z" fill="#fff"/><path d="M2478.49,812c-27.44,0-33.11-7.1-33.89-8.36V765.35h89.47l0-65.69c0-.21.77-5.18-3.84-10.61-5.54-6.48-19.45-14.19-54.23-14.19-36.74,0-50.07,7.1-54.8,13.09-2.9,3.59-2.7,6.73-2.53,7.75V809c-.17,1.06-.37,5,3.14,9.34,5.34,6.61,19.82,14.48,58.19,14.48.28,0,1.67,0,3.79,0,10.23,0,38.17-.86,47.22-9.91a10,10,0,0,0,3.14-7.42V800l-3,1.51C2530.93,801.6,2510.17,812,2478.49,812ZM2444.6,705.85c0-.08,0-1.5,1.8-3.34,2.57-2.61,10-7,30.82-7s28.26,4.4,30.83,7c1.8,1.84,1.8,3.26,1.8,3.43V740.8c-3.88-.12-12.56-.08-32.67.08-20-.16-28.7-.2-32.58-.08Z" fill="#fff"/><path d="M2393.88,405.12c46.36,44.69,110.38,40.78,110.71,40.74.12,0,1.71.08,4.52.08,15.46,0,67.29-3,106.51-40.82,34.22-33,50.4-83.47,48.16-149.86,2.24-66.5-13.94-117-48.16-150-45.3-43.68-107.45-40.94-110.87-40.74-3.43-.16-65.57-3-110.87,40.74-34.22,33-50.41,83.47-48.16,149.85C2343.47,321.65,2359.66,372.13,2393.88,405.12Zm68-249.39c10.6-10.4,25.08-15.5,42.86-15h.08c17.82-.45,32.25,4.65,42.86,15,17.37,17.08,25.36,48,25.16,97.29-.21,38.37-3.51,85.31-27.57,107.78-10.32,9.66-23.51,14.13-40,14-16.82.12-30.69-4.35-41-14-24.06-22.47-27.36-69.41-27.57-107.78C2436.49,203.72,2444.48,172.81,2461.85,155.73Z" fill="#fff"/><path d="M2400.12,808.28c-4.29.67-14.22,2.46-15.46,2.66l-.49.08a126.28,126.28,0,0,1-23.81,1.71c-7.67-.16-13.91-1.79-17.62-4.61-2.53-2-3.91-5.79-4.16-11.7-.61-13.74-.65-27.77-.69-41.35,0-4.6,0-9.21,0-13.82-.08-13.62-.17-27.28-.25-40.9h57.17l4.81-20.39h-62.22V638.65l-23.9,5.55v35.23h-29l-8.2,20.92h37.64c-.08,14.72-.37,99.42,1.55,115.2,1.92,16.1,21.94,17.29,46.24,17.29h6.2l6.73-.05c10.72,0,18.51-2.81,23.16-8.4,5.91-7.13,4.32-16,4.28-16.35A10.93,10.93,0,0,0,2400.12,808.28Z" fill="#fff"/><rect x="2206.38" y="67.28" width="89.06" height="375.84" fill="#fff"/><path d="M2265.41,807.92c-4.46.47-14.73,2.91-15.36,3l-.49.08a126,126,0,0,1-23.81,1.71c-7.62-.16-13.86-1.79-17.57-4.61-2.57-2-4-5.79-4.2-11.7-.62-13.74-.66-27.77-.66-41.35,0-4.6,0-9.21-.08-13.82-.08-13.62-.16-27.28-.2-40.9h57.17L2265,680h-62.23V638.65l-23.89,5.55v35.23h-29l-8.23,20.92h37.64c-.09,14.72-.33,99.42,1.54,115.2,2,16.1,21.94,17.29,46.25,17.29h6.19l6.73-.05c10.72,0,18.55-2.81,23.16-8.39a20.73,20.73,0,0,0,4.29-16.35C2267.42,807.81,2266.63,807.79,2265.41,807.92Z" fill="#fff"/><path d="M2074.26,674.86c-41.06.53-54.8,12.24-55.33,12.77l-.7.57v17.7l2.78-1.11c39.92-15.94,74.7-6.72,81.84-4.48l.41,35.8c-3.92-1.59-12-3.14-29-3.14-35.88,0-53.86,11-54.64,11.54s-8.56,6.57-8.56,35.36,4.57,39.14,4.77,39.59l.45.61c.53.53,13.78,12.72,55.41,12.72,41.84,0,52.69-13.9,53.14-14.51l.41-.53V689.34l-.29-.49C2124.62,688.24,2115.61,674.29,2074.26,674.86Zm28.06,132.41c-11.22,6.36-46.73,4-61,2.44-15.16-22.71-2.07-47.22.21-51.13,19.69-7.46,53.13-1.51,60.8,0Z" fill="#fff"/><polygon points="2179.3 443.13 2096.57 295.59 2166.3 165.27 2073.28 165.27 2010.65 287.19 2010.65 73.4 1923.14 73.4 1885.59 142.03 1927.06 142.03 1927.06 443.13 2009.3 443.13 2009.3 309.66 2082.87 443.13 2179.3 443.13" fill="#fff"/><path d="M1983,688.24c-6.73-8.12-20.55-12.6-41.1-13.38-8.74-.33-17.49-.65-26.23-.77-6.84-.1-13.67.65-20.5.2-2.68-.18-5.35-.24-8-.24-9.69,0-19.39.36-29.07.72l-2.5.09c-20.55.78-34.37,5.26-41.1,13.38-4.61,5.59-3.92,10.85-3.92,10.85V831.37h24.72V701.82c5.09-5.3,31.35-5.43,48.44-4.16V831.37h30V697.66c17.09-1.27,43.35-1.14,48.45,4.16V831.37h24.71l0-132C1986.88,699.17,1987.61,693.87,1983,688.24Z" fill="#fff"/><path d="M1899.21,411.81l-.94-1.63c-3.67-6.49-35-47.51-36.29-49.26l-1.11-1.47-1.59,1c-.53.33-52.68,32.21-86.89,1.88-14.31-12.69-21.49-34.09-22.27-51.91h.25c-.16-1.39-.25-2.86-.29-4.33,0-1.71.13-3.34.29-4.93l-.29,0c.53-17.05,6.4-37.11,18.31-48.69,8.85-8.56,22.18-13.21,37.56-13.17,13.94.08,27.73,3.79,41.06,7.38l1.51.41,32.91-57.91-1.51-1.06a132.18,132.18,0,0,0-183.79,33.12c-16.35,23.52-25.4,53.58-25.52,84.61-.12,30.3,8.28,59.66,23.73,82.74a132.2,132.2,0,0,0,85.47,56,82.86,82.86,0,0,0,15.29,1.31c33.32,0,76.62-15.66,102.52-33Z" fill="#fff"/><path d="M1637.33,674.86c-41.06.53-54.8,12.24-55.37,12.77l-.7.57v17.7l2.82-1.11c39.88-15.94,74.66-6.72,81.8-4.48l.45,35.8c-4-1.59-12-3.14-29-3.14-35.84,0-53.82,11-54.64,11.54s-8.56,6.57-8.56,35.36,4.57,39.14,4.77,39.59l.45.61c.57.53,13.82,12.72,55.46,12.72,41.83,0,52.68-13.9,53.09-14.51l.41-.53V689.34l-.29-.49C1687.65,688.24,1678.64,674.29,1637.33,674.86Zm28.06,132.41c-11.26,6.36-46.77,4-61.05,2.44-15.16-22.71-2.08-47.22.25-51.13,19.65-7.46,53.13-1.51,60.8,0Z" fill="#fff"/><path d="M1550.1,807.93c-4.85.78-12.48,2.85-13.41,3l-.48.08a126.44,126.44,0,0,1-23.82,1.71c-7.66-.16-13.9-1.79-17.61-4.61-2.53-2-3.92-5.79-4.16-11.7-.62-13.74-.66-27.81-.7-41.39,0-4.56,0-9.17,0-13.78-.08-13.62-.16-27.28-.24-40.9h57.17l4.81-20.39h-62.23V638.65l-23.89,5.55v35.23h-29l-8.2,20.92H1466c-.09,14.72-.37,99.42,1.55,115.2,1.91,16.1,21.93,17.29,46.24,17.29h6.2l6.72-.05c10.73,0,18.52-2.81,23.17-8.4,5.87-7.09,4.34-15.88,4.28-16.34S1552.37,807.57,1550.1,807.93Z" fill="#fff"/><path d="M1415.3,352.68c-.77,33.85,15.09,62.39,43.59,78.25,26.67,14.89,55.26,15.09,80.46,15.3h2.52a305.72,305.72,0,0,0,96.32-15.46l1.39-.45V255.1c0-.81-4.41-81-87.43-88.57-3.06-.36-75.28-7.95-119.52,17.9l-1.39.86,20.23,64.27,2.12-1c.33-.17,31.85-15.42,64.27-14.07,18.92.77,29.23,7.95,34.53,13.86,4.73,5.26,6.65,10.81,7,14.68h-45.55C1512.84,263.05,1417.38,266.11,1415.3,352.68ZM1558.71,326v52.77c-8.15.86-42.57,3.59-57.9-9.75a20.89,20.89,0,0,1-7.34-16.63c0-6.89,2.41-12.36,7.34-16.64,10-8.73,28.14-10.6,41.8-10.6A150.52,150.52,0,0,1,1558.71,326Z" fill="#fff"/><path d="M1359.88,674.86c-41.06.53-54.76,12.24-55.33,12.77l-.69.57v17.7l2.81-1.11c39.88-15.94,74.66-6.72,81.8-4.48l.41,35.8c-3.92-1.59-12-3.14-29-3.14-35.85,0-53.87,11-54.65,11.54s-8.56,6.57-8.56,35.36,4.57,39.14,4.77,39.59l.45.61c.53.53,13.82,12.72,55.42,12.72,41.83,0,52.68-13.9,53.13-14.51l.41-.53V689.34l-.29-.49C1410.24,688.24,1401.44,674.37,1359.88,674.86Zm28.06,132.41c-11.21,6.36-46.73,4-61,2.44-15.17-22.71-2.08-47.22.2-51.13,19.7-7.46,53.13-1.51,60.8,0Z" fill="#fff"/><path d="M1215.49,333.11c43.71,1.55,82.29-6.61,111.61-23.61,36.74-21.29,58.27-59.66,59-105.29a173.64,173.64,0,0,0-6.44-49.46c-10-35.84-41.88-68-79.31-79.88-26.87-8.57-55.54-8.12-85-6.85l-2.1.07-3.24.11-4.21.12-5,.14-5.67.15-6.18.16-6.52.15-6.7.15-6.74.15-6.6.12-6.31.11-5.86.09-5.27,0q-2.25,0-4.5,0c-1.19,0-2.39,0-3.58,0-.84,0-1.68,0-2.51-.06-1.29-.05-2.56-.1-3.85-.1V443.13h84.25Zm-.65-191c5.06-.57,25.08,1.1,27.4,1.51,24,4.2,54.45,21.15,54.28,56.19.17,30.88-30.26,52-54.28,56.23-2.32.41-22.34,2-27.4,1.51Z" fill="#fff"/><path d="M1267.44,616.23l-1.14-.37c-39.19-13.25-130-10-133.79-9.79l-2,0v226.2l2,0c1.3.08,12.76.49,28.79.49,31,0,79.19-1.55,105-10.28l.86-.73.49-.9c15.17-105.61.16-202.5,0-203.48Zm-19.86,189c-5.42,4-58.8,4.73-92.56,4.2v-180c82.49-2.29,91,5.75,91.79,7l-.08.12,0,.62C1249.83,698.84,1252.76,799,1247.58,805.27Z" fill="#fff"/><circle cx="321.22" cy="74.42" r="68.3" fill="#fff"/><circle cx="568.01" cy="74.42" r="68.3" fill="#fff"/><path d="M889.23,74.42a74.42,74.42,0,1,0-130.77,48.47L615.2,266.15a74.33,74.33,0,0,0-121.29,51.39H395.33A74.33,74.33,0,0,0,274,266.16L130.77,122.89a74.11,74.11,0,1,0-8.69,8.61L265.29,274.71a74.09,74.09,0,0,0-1.06,96.71L118,517.64l4.32,4.33,4.33,4.32,146.2-146.2a74.27,74.27,0,0,0,122.48-50.32h98.58a74.44,74.44,0,0,0,68,68v101a74.42,74.42,0,1,0,12.23,0v-101a74.45,74.45,0,0,0,68-68H740.7a74.39,74.39,0,1,0,80.23-80.22v-101A74.48,74.48,0,0,0,889.23,74.42ZM740.7,317.54H642.12a74,74,0,0,0-18.19-42.83L767.15,131.5a74,74,0,0,0,41.54,17v101A74.45,74.45,0,0,0,740.7,317.54Zm-125.28-43ZM766.91,123.09Zm47.9,19.63Zm0-130.49a62.19,62.19,0,1,1-62.19,62.19A62.26,62.26,0,0,1,814.81,12.23Zm-541,262.35ZM122.32,123.09ZM12.23,74.42A62.19,62.19,0,1,1,74.42,136.6,62.26,62.26,0,0,1,12.23,74.42ZM273.81,370.48Zm47.41,15.36a62.19,62.19,0,1,1,62.18-62.19A62.26,62.26,0,0,1,321.22,385.84Zm180.62-62.19h0ZM568,502.54Zm62.19,70.35A62.19,62.19,0,1,1,568,510.7,62.26,62.26,0,0,1,630.2,572.89ZM568,385.84a62.19,62.19,0,1,1,62.19-62.19A62.26,62.26,0,0,1,568,385.84Zm178.5-62.19Zm130.49,0a62.19,62.19,0,1,1-62.19-62.18A62.26,62.26,0,0,1,877,323.65Z" fill="#fff"/><circle cx="74.42" cy="323.65" r="68.3" fill="#fff"/><circle cx="74.42" cy="822.13" r="68.3" fill="#fff"/><path d="M321.22,747.71a74.08,74.08,0,0,0-47,16.76L126.64,616.88l-.21.22-4.11,4.11-3.69,3.69-.63.63L265.46,773a74.33,74.33,0,1,0,55.76-25.29Zm-47.41,25Zm47.41,111.61a62.19,62.19,0,1,1,62.18-62.18A62.25,62.25,0,0,1,321.22,884.31Z" fill="#fff"/><circle cx="568.01" cy="822.13" r="68.3" fill="#fff"/><circle cx="814.81" cy="822.13" r="68.3" fill="#fff"/><path d="M122.32,621.21h0l4.11-4.11a68.4,68.4,0,1,0-7.8,7.8l3.69-3.69Z" fill="#fff"/><circle cx="321.22" cy="572.89" r="68.3" fill="#fff"/><circle cx="814.81" cy="572.89" r="68.3" fill="#fff"/><line x1="814.81" y1="142.72" x2="814.81" y2="142.72" fill="none" stroke="#1f608a" stroke-linecap="round" stroke-linejoin="round" stroke-width="0"/><line x1="568.01" y1="502.54" x2="568.01" y2="502.54" fill="none" stroke="#1f608a" stroke-linecap="round" stroke-linejoin="round" stroke-width="0"/><line x1="766.91" y1="123.09" x2="766.91" y2="123.09" fill="none" stroke="#1f608a" stroke-linecap="round" stroke-linejoin="round" stroke-width="0"/><line x1="615.42" y1="274.58" x2="615.42" y2="274.58" fill="none" stroke="#1f608a" stroke-linecap="round" stroke-linejoin="round" stroke-width="0"/><line x1="122.32" y1="521.97" x2="122.32" y2="521.97" fill="none" stroke="#1f608a" stroke-linecap="round" stroke-linejoin="round" stroke-width="0"/><line x1="273.81" y1="370.48" x2="273.81" y2="370.48" fill="none" stroke="#1f608a" stroke-linecap="round" stroke-linejoin="round" stroke-width="0"/><line x1="746.51" y1="323.65" x2="746.51" y2="323.65" fill="none" stroke="#1f608a" stroke-linecap="round" stroke-linejoin="round" stroke-width="0"/><line x1="501.85" y1="323.65" x2="501.84" y2="323.65" fill="none" stroke="#1f608a" stroke-linecap="round" stroke-linejoin="round" stroke-width="0"/><line x1="273.81" y1="274.58" x2="273.81" y2="274.58" fill="none" stroke="#1f608a" stroke-linecap="round" stroke-linejoin="round" stroke-width="0"/><line x1="122.32" y1="123.09" x2="122.32" y2="123.09" fill="none" stroke="#1f608a" stroke-linecap="round" stroke-linejoin="round" stroke-width="0"/><line x1="122.32" y1="621.21" x2="122.32" y2="621.21" fill="none" stroke="#1f608a" stroke-linecap="round" stroke-linejoin="round" stroke-width="0"/><line x1="273.81" y1="772.7" x2="273.81" y2="772.7" fill="none" stroke="#1f608a" stroke-linecap="round" stroke-linejoin="round" stroke-width="0"/></svg>