<svg xmlns="http://www.w3.org/2000/svg" viewBox="0 0 649.79 649.79"><path d="M645,54.1A54,54,0,1,0,550.1,89.27l-104,104a53.92,53.92,0,0,0-88,37.28H286.6a53.93,53.93,0,0,0-88-37.28L94.65,89.27a53.79,53.79,0,1,0-6.31,6.25L192.25,199.43a53.76,53.76,0,0,0-.77,70.17L85.38,375.71l.38.38a51,51,0,1,0,.62,78.9l106,106a53.58,53.58,0,1,0,6.37-6.18L92.67,448.73a50.79,50.79,0,0,0-.89-66.87L197.72,275.92a53.88,53.88,0,0,0,88.86-36.52h71.54a54,54,0,0,0,49.34,49.34V362a54,54,0,1,0,8.87,0V288.74a54,54,0,0,0,49.34-49.34h71.54a54,54,0,1,0,58.21-58.2V107.91A54,54,0,0,0,645,54.1ZM537.21,230.51H465.68a53.77,53.77,0,0,0-13.19-31.08L556.4,95.52a53.7,53.7,0,0,0,30.14,12.33v73.29A54,54,0,0,0,537.21,230.51ZM591,9A45.13,45.13,0,1,1,545.86,54.1,45.13,45.13,0,0,1,591,9ZM8.63,54.1A45.13,45.13,0,1,1,53.77,99.22h0A45.19,45.19,0,0,1,8.63,54.1ZM278,596.64a45.13,45.13,0,1,1-45.12-45.13h0A45.17,45.17,0,0,1,278,596.64ZM232.84,280.07A45.13,45.13,0,1,1,278,234.93h0A45.18,45.18,0,0,1,232.84,280.07ZM457,415.8a45.13,45.13,0,1,1-45.12-45.14A45.11,45.11,0,0,1,457,415.8ZM411.9,280.07A45.13,45.13,0,1,1,457,234.94,45.14,45.14,0,0,1,411.9,280.07Zm224.2-45.13A45.13,45.13,0,1,1,591,189.82h0a45.18,45.18,0,0,1,45.13,45.12Z" fill="#1f608a"/></svg>