<svg xmlns="http://www.w3.org/2000/svg" viewBox="0 0 649.79 649.79"><circle cx="232.84" cy="234.94" r="45.12" fill="none"/><path d="M586.54,181.17V107.89A53.64,53.64,0,0,1,556.4,95.55L452.49,199.43a53.77,53.77,0,0,1,13.19,31.08h71.53A54,54,0,0,1,586.54,181.17Z" fill="none"/><circle cx="232.84" cy="596.64" r="45.12" fill="none"/><circle cx="411.91" cy="415.79" r="45.12" fill="none"/><circle cx="590.98" cy="54.1" r="45.12" fill="none"/><circle cx="590.98" cy="234.94" r="45.12" fill="none"/><circle cx="411.91" cy="234.94" r="45.12" fill="none"/><circle cx="53.76" cy="54.1" r="45.12" fill="none"/><circle cx="232.84" cy="54.1" r="51.04" fill="#1f608a"/><circle cx="411.91" cy="54.1" r="51.04" transform="translate(292.52 452.02) rotate(-80.78)" fill="#1f608a"/><circle cx="53.76" cy="234.94" r="51.04" fill="#1f608a"/><circle cx="53.76" cy="596.64" r="51.04" fill="#1f608a"/><circle cx="411.91" cy="596.64" r="51.04" fill="#1f608a"/><circle cx="590.98" cy="596.64" r="51.04" fill="#1f608a"/><circle cx="232.84" cy="415.79" r="51.04" fill="#1f608a"/><circle cx="590.98" cy="415.79" r="51.04" fill="#1f608a"/></svg>